<?xml version="1.0" encoding="UTF-8" standalone="no"?>
<svg
   xmlns:dc="http://purl.org/dc/elements/1.1/"
   xmlns:cc="http://creativecommons.org/ns#"
   xmlns:rdf="http://www.w3.org/1999/02/22-rdf-syntax-ns#"
   xmlns:svg="http://www.w3.org/2000/svg"
   xmlns="http://www.w3.org/2000/svg"
   viewBox="0 0 256 96"
   height="96"
   width="256"
   xml:space="preserve"
   id="svg2"
   version="1.1"><metadata
     id="metadata8"><rdf:RDF><cc:Work
         rdf:about=""><dc:format>image/svg+xml</dc:format><dc:type
           rdf:resource="http://purl.org/dc/dcmitype/StillImage" /><dc:title></dc:title></cc:Work></rdf:RDF></metadata><defs
     id="defs6"><clipPath
       id="clipPath18"
       clipPathUnits="userSpaceOnUse"><path
         id="path16"
         d="M 0,300 H 300 V 0 H 0 Z" /></clipPath></defs><g
     transform="matrix(1.3333333,0,0,-1.3333333,-72.323998,250.63866)"
     id="g10"><g
       id="g12"><g
         clip-path="url(#clipPath18)"
         id="g14"><g
           transform="translate(139.6333,134.0352)"
           id="g20"><path
             id="path22"
             style="fill:#000000;fill-opacity:1;fill-rule:nonzero;stroke:none"
             d="m 0,0 v -9.295 h 2.723 c 1.6,0 2.464,0.735 2.464,2.983 v 2.637 C 5.187,-0.865 4.279,0 2.118,0 Z M 0,12.32 V 4.322 h 1.859 c 1.772,0 2.853,0.779 2.853,3.199 v 1.686 c 0,2.162 -0.735,3.113 -2.421,3.113 z M 9.467,9.683 V 8.602 C 9.467,5.49 8.516,3.501 6.397,2.507 8.948,1.513 9.942,-0.778 9.942,-3.978 v -2.463 c 0,-4.668 -2.463,-7.176 -7.219,-7.176 h -7.478 v 30.26 H 2.42 c 4.929,0 7.047,-2.291 7.047,-6.96" /></g><path
           id="path24"
           style="fill:#000000;fill-opacity:1;fill-rule:nonzero;stroke:none"
           d="m 151.959,150.678 h 4.755 v -30.26 h -4.755 z" /><g
           transform="translate(163.7554,142.334)"
           id="g26"><path
             id="path28"
             style="fill:#000000;fill-opacity:1;fill-rule:nonzero;stroke:none"
             d="M 0,0 V -21.916 H -4.279 V 8.344 H 1.686 L 6.571,-9.77 V 8.344 h 4.236 v -30.26 H 5.922 Z" /></g><g
           transform="translate(176.5571,150.6777)"
           id="g30"><path
             id="path32"
             style="fill:#000000;fill-opacity:1;fill-rule:nonzero;stroke:none"
             d="M 0,0 H 14.698 V -4.322 H 9.727 V -30.26 H 4.971 V -4.322 H 0 Z" /></g><g
           transform="translate(198.0264,146.3555)"
           id="g34"><path
             id="path36"
             style="fill:#000000;fill-opacity:1;fill-rule:nonzero;stroke:none"
             d="m 0,0 v -9.295 h 1.859 c 1.772,0 2.853,0.778 2.853,3.199 v 2.983 C 4.712,-0.951 3.977,0 2.291,0 Z m 5.187,-25.937 c -0.259,0.778 -0.432,1.253 -0.432,3.717 v 4.755 c 0,2.811 -0.951,3.848 -3.112,3.848 H 0 v -12.32 H -4.755 V 4.322 H 2.42 c 4.929,0 7.047,-2.291 7.047,-6.96 v -2.378 c 0,-3.111 -0.994,-5.143 -3.113,-6.137 2.378,-0.995 3.156,-3.286 3.156,-6.441 v -4.67 c 0,-1.468 0.043,-2.549 0.519,-3.673 z" /></g><g
           transform="translate(215.5186,130.0146)"
           id="g38"><path
             id="path40"
             style="fill:#000000;fill-opacity:1;fill-rule:nonzero;stroke:none"
             d="M 0,0 H 4.582 L 2.291,15.303 Z M 10.85,-9.597 H 6.052 L 5.23,-4.106 h -5.835 l -0.821,-5.491 h -4.366 l 4.841,30.26 h 6.96 z" /></g><g
           transform="translate(231.2437,130.4473)"
           id="g42"><path
             id="path44"
             style="fill:#000000;fill-opacity:1;fill-rule:nonzero;stroke:none"
             d="m 0,0 -6.009,20.23 h 4.971 L 2.594,6.44 6.225,20.23 h 4.539 L 4.755,0 V -10.029 H 0 Z" /></g><g
           transform="translate(65.2788,154.749)"
           id="g46"><path
             id="path48"
             style="fill:#40be46;fill-opacity:1;fill-rule:nonzero;stroke:none"
             d="m 0,0 20.441,-23.426 20.846,22.827 0.002,-3.503 4.5,0.002 -0.005,11.443 -11.452,-0.006 0.002,-4.5 3.999,0.002 -15.573,-17.052 v 35.458 l 2.662,-2.66 3.181,3.184 -8.095,8.087 -8.094,-8.102 3.184,-3.18 2.662,2.665 V -14.083 L 3.496,2.839 6.953,2.837 6.955,7.337 -4.497,7.343 -4.501,-4.1 l 4.5,-0.002 z" /></g><path
           id="path50"
           style="fill:#40be46;fill-opacity:1;fill-rule:nonzero;stroke:none"
           d="m 57.993,119.729 h 55.859 v 4.235 H 57.993 Z" /><g
           transform="translate(134.0347,156.853)"
           id="g52"><path
             id="path54"
             style="fill:#40be46;fill-opacity:1;fill-rule:nonzero;stroke:none"
             d="m 0,0 c -0.737,0 -1.379,0.077 -1.926,0.231 v 2.717 c 0.561,-0.14 1.073,-0.211 1.537,-0.211 0.716,0 1.228,0.223 1.536,0.669 0.31,0.446 0.464,1.142 0.464,2.09 V 19.918 H 4.875 V 5.517 C 4.875,3.72 4.464,2.351 3.643,1.411 2.822,0.47 1.607,0 0,0" /></g><g
           transform="translate(145.9941,161.3799)"
           id="g56"><path
             id="path58"
             style="fill:#40be46;fill-opacity:1;fill-rule:nonzero;stroke:none"
             d="M 0,0 H -3.211 V 15.392 H 5.611 V 12.717 H 0 V 8.749 H 5.222 V 6.085 H 0 Z" /></g><g
           transform="translate(160.9331,173.3711)"
           id="g60"><path
             id="path62"
             style="fill:#40be46;fill-opacity:1;fill-rule:nonzero;stroke:none"
             d="M 0,0 C 0.435,0 0.796,-0.032 1.084,-0.095 L 0.842,-3.106 C 0.582,-3.036 0.267,-3 -0.105,-3 -1.13,-3 -1.929,-3.264 -2.5,-3.79 -3.073,-4.316 -3.358,-5.054 -3.358,-6.001 v -5.99 h -3.211 v 11.77 h 2.431 l 0.474,-1.98 h 0.158 c 0.365,0.66 0.858,1.192 1.479,1.596 C -1.406,-0.202 -0.73,0 0,0" /></g><g
           transform="translate(166.7129,167.2861)"
           id="g64"><path
             id="path66"
             style="fill:#40be46;fill-opacity:1;fill-rule:nonzero;stroke:none"
             d="m 0,0 c 0,-1.166 0.191,-2.046 0.574,-2.643 0.382,-0.596 1.005,-0.895 1.868,-0.895 0.857,0 1.473,0.297 1.848,0.89 0.376,0.593 0.563,1.476 0.563,2.648 0,1.165 -0.189,2.039 -0.568,2.621 -0.379,0.583 -1,0.874 -1.864,0.874 C 1.565,3.495 0.947,3.206 0.568,2.626 0.189,2.047 0,1.172 0,0 M 8.138,0 C 8.138,-1.917 7.632,-3.415 6.622,-4.496 5.611,-5.577 4.204,-6.117 2.4,-6.117 c -1.13,0 -2.126,0.247 -2.989,0.742 -0.864,0.495 -1.527,1.206 -1.99,2.132 -0.463,0.927 -0.695,2.008 -0.695,3.243 0,1.923 0.502,3.417 1.505,4.484 1.004,1.067 2.415,1.601 4.232,1.601 1.13,0 2.127,-0.246 2.99,-0.737 C 6.316,4.856 6.98,4.151 7.443,3.232 7.906,2.312 8.138,1.235 8.138,0" /></g><g
           transform="translate(179.8306,169.2969)"
           id="g68"><path
             id="path70"
             style="fill:#40be46;fill-opacity:1;fill-rule:nonzero;stroke:none"
             d="m 0,0 c 0,-0.639 0.146,-1.144 0.437,-1.516 0.291,-0.372 0.735,-0.558 1.332,-0.558 0.603,0 1.045,0.186 1.326,0.558 0.28,0.372 0.421,0.877 0.421,1.516 0,1.417 -0.582,2.126 -1.747,2.126 C 0.589,2.126 0,1.417 0,0 m -1.169,-9.581 c 0,-0.441 0.212,-0.789 0.637,-1.042 0.425,-0.252 1.019,-0.378 1.784,-0.378 1.152,0 2.054,0.157 2.706,0.473 0.653,0.316 0.979,0.748 0.979,1.295 0,0.442 -0.193,0.748 -0.579,0.916 -0.386,0.169 -0.983,0.253 -1.79,0.253 H 0.905 c -0.59,0 -1.083,-0.139 -1.479,-0.416 -0.397,-0.277 -0.595,-0.644 -0.595,-1.101 M 7.917,3.853 V 2.221 L 6.074,1.748 C 6.411,1.221 6.58,0.631 6.58,-0.021 6.58,-1.285 6.139,-2.269 5.258,-2.974 4.377,-3.68 3.154,-4.032 1.589,-4.032 L 1.01,-4 0.537,-3.948 C 0.207,-4.201 0.042,-4.481 0.042,-4.79 c 0,-0.463 0.589,-0.695 1.769,-0.695 h 2 c 1.291,0 2.275,-0.277 2.953,-0.832 0.677,-0.554 1.016,-1.369 1.016,-2.442 0,-1.376 -0.574,-2.443 -1.721,-3.2 -1.148,-0.759 -2.796,-1.138 -4.943,-1.138 -1.642,0 -2.897,0.286 -3.764,0.858 -0.867,0.572 -1.3,1.374 -1.3,2.406 0,0.709 0.221,1.302 0.663,1.779 0.442,0.477 1.092,0.818 1.948,1.021 -0.33,0.14 -0.618,0.37 -0.864,0.69 -0.245,0.319 -0.368,0.658 -0.368,1.016 0,0.449 0.13,0.823 0.39,1.121 0.259,0.298 0.635,0.591 1.126,0.879 -0.617,0.267 -1.107,0.695 -1.468,1.285 -0.362,0.589 -0.543,1.284 -0.543,2.084 0,1.284 0.418,2.277 1.253,2.979 0.835,0.702 2.028,1.053 3.58,1.053 0.329,0 0.721,-0.03 1.173,-0.09 C 3.395,3.925 3.685,3.881 3.811,3.853 Z" /></g></g></g></g></svg>